 IMDB.....:  http://www.imdb.com/title/tt0995851/
 Youtube..: 
 Subtitles:  English. 

            -=-=-=-=-R E L E A s E/i N F O-=-=-=-=-
   General
      Complete name : In.Her.Skin.2009 DVDRip.XviD.SBT.avi
      Format : AVI
      Format/Info : Audio Video Interleave
      File size : 701 MiB
      Duration : 1h 48mn
      Overall bit rate : 906 Kbps
      Writing application : VirtualDubMod 1.5.10.2 (build 2540/release)
      Writing library : VirtualDubMod build 2540/release.
   Video #0
      ID : 0
      Format : MPEG-4 Visual
      Format profile : AdvancedSimple@L5
      Format settings, BVOP : Yes
      Format settings, QPel : No
      Format settings, GMC : No warppoints
      Format settings, Matrix : Default (H.263)
      Muxing mode : Packed bitstream
      Codec ID : XVID
      Codec ID/Hint : XviD
      Duration : 1h 48mn
      Bit rate : 760 Kbps
      Width : 576 pixels
      Height : 240 pixels
      Display aspect ratio : 2.40:1
      Frame rate : 23.976 fps
      Resolution : 24 bits
      Colorimetry : 4:2:0
      Scan type : Progressive
      Bits/(Pixel*Frame) : 0.229
      Stream size : 588 MiB (84%)
      Writing library : XviD 61.
   Audio #1
      ID : 1
      Format : MPEG Audio
      Format version : Version 1
      Format profile : Layer 3
      Codec ID : 55
      Codec ID/Hint : MP3
      Duration : 1h 48mn
      Bit rate mode : Variable
      Bit rate : 133 Kbps
      Minimum bit rate : 128 Kbps
      Channel(s) : 2 channels
      Sampling rate : 48.0 KHz
      Resolution : 16 bits
      Stream size : 103 MiB (15%)
      Alignment : Aligned on interleaves
      Interleave, duration : 24 ms (0.58 video frame)
      Interleave, preload duration : 138 ms
      Writing library : LAME3.95 
      Encoding settings : -m j -V 4 -q 3 -lowpass 18 --vbr-old -b 128.